<svg width="304.9200042724609" height="304.9200042724609" viewBox="0 0 312.5 312.5" class="looka-1j8o68f"><defs id="SvgjsDefs2333"></defs><g id="SvgjsG2334" featurekey="rootContainer" transform="matrix(6.25,0,0,6.25,0,0)" fill="#f6f6f6"><path xmlns="http://www.w3.org/2000/svg" d="M50 25c0 8.88-3.62 15.67-10.6 20.11C35.53 47.58 29.93 50 25 50c-8.63 0-14.24-1.37-18.73-8C3.57 38 0 30.2 0 25c0-6.85 1.76-14.06 6.22-18.58S18.04 0 25 0c9.5 0 16.77 5.3 21 13.11 1.88 3.53 4 7.58 4 11.89z"></path></g><g id="SvgjsG2335" featurekey="symbolFeature-0" transform="matrix(0.09756097197532654,0,0,0.09756097197532654,116,91.02786106016578)" fill="#262626"><defs xmlns="http://www.w3.org/2000/svg"></defs><g xmlns="http://www.w3.org/2000/svg"><path class="fil0" d="M0 333c0,0 106,-65 145,-80 39,-15 62,-23 100,-52 39,-30 88,-91 105,-104 17,-12 17,-8 49,-19 40,-14 95,-98 116,-74 12,15 44,107 58,69 6,-16 19,-42 32,-32 14,11 11,9 25,60 14,51 20,48 38,66 19,17 5,9 25,49 21,40 62,85 77,109 10,18 18,32 21,37 -44,-14 -127,-38 -223,-54 -9,-17 -10,-45 -12,-55 -8,-40 -60,-28 -42,-61 6,-13 89,-89 61,-85 -17,3 -47,9 -53,12 -85,36 20,-84 -66,-47 -8,4 -31,0 -45,15 -13,15 -31,-3 -47,15 -16,18 -6,26 -32,47 -25,21 -24,22 -46,37 -21,15 -24,36 -43,43 -18,7 -53,24 -65,24 -13,0 -63,30 -69,36 -5,7 -109,44 -109,44z" style="fill: #262626;"></path><path class="fil0" d="M35 356c0,0 212,-57 406,-43 193,14 379,81 379,81l-72 19c-156,-59 -317,-77 -317,-77 0,0 154,49 243,97l-121 31c0,0 -125,-75 -209,-99 -83,-24 -309,-9 -309,-9z" style="fill: #262626;"></path></g></g><g id="SvgjsG2336" featurekey="nameFeature-0" transform="matrix(2.2380878925323486,0,0,2.2380878925323486,55.999998399194865,130.75437672929644)" fill="#1a1a1a"><path d="M8.52 39.84 l-4.2 -15.76 l-0.6 1 l0 14.88 l-3.72 0 l0 -28.52 l3.72 0 l0 6.2 l2.48 -6.2 l4.6 0 l-3.8 8.24 l5.4 20.16 l-3.88 0 z M24.186999999999998 33.44 l0.16 -22.16 l3.84 0 l-0.24 28.88 l-5.96 0 l-3.24 -22.36 l0 22.36 l-3.84 0 l0 -28.88 l6.2 0 z M36.094 40.04 c-3 0 -5.4 -2.44 -5.4 -5.4 l0 -17.96 c0 -2.96 2.4 -5.36 5.4 -5.36 c2.96 0 5.36 2.4 5.36 5.36 l0 17.96 c0 2.96 -2.4 5.4 -5.36 5.4 z M36.094 15.120000000000001 c-0.88 0 -1.56 0.72 -1.56 1.56 l0 17.96 c0 0.88 0.68 1.56 1.56 1.56 c0.84 0 1.56 -0.68 1.56 -1.56 l0 -17.96 c0 -0.84 -0.72 -1.56 -1.56 -1.56 z M49.321 39.92 c-2.96 0 -5.36 -2.4 -5.36 -5.36 l0 -17.76 c0 -2.96 2.4 -5.36 5.36 -5.36 s5.36 2.4 5.36 5.36 l0 1.6 l-3.8 0 l0 -1.6 c0 -0.84 -0.72 -1.56 -1.56 -1.56 s-1.56 0.72 -1.56 1.56 l0 17.76 c0 0.84 0.72 1.56 1.56 1.56 s1.56 -0.72 1.56 -1.56 l0 -2.56 l3.8 0 l0 2.56 c0 2.96 -2.4 5.36 -5.36 5.36 z M65.708 39.84 l-4.2 -15.76 l-0.6 1 l0 14.88 l-3.72 0 l0 -28.52 l3.72 0 l0 6.2 l2.48 -6.2 l4.6 0 l-3.8 8.24 l5.4 20.16 l-3.88 0 z M83.055 40.08 l-4.08 0 l-2.2 -6.04 l-0.88 0 l0 6.04 l-3.8 0 l0 -28.64 l5.96 0 c2.64 0 4.76 2.12 4.76 4.76 l0 13.08 c0 1.72 -0.88 3.2 -2.24 4.04 z M75.895 15.239999999999998 l0 15 l2.16 0 c0.52 0 0.96 -0.44 0.96 -0.96 l0 -13.08 c0 -0.52 -0.44 -0.96 -0.96 -0.96 l-2.16 0 z M89.362 11.36 l0 28.48 l-3.8 0 l0 -28.48 l3.8 0 z"></path></g></svg>